<svg xmlns="http://www.w3.org/2000/svg" width="31.998" height="32" viewBox="0 0 31.998 32">
  <g id="Calender_Ic_-My_Students_Screen" data-name="Calender_Ic -My Students Screen" transform="translate(0 0)">
    <path id="rect825" d="M7.72.261A1.061,1.061,0,0,0,6.666,1.345V2.407H3.47a3.226,3.226,0,0,0-3.206,3.2v3.2h32v-3.2a3.217,3.217,0,0,0-3.2-3.2h-3.2V1.345a1.067,1.067,0,1,0-2.133,0V2.407h-6.4V1.345a1.067,1.067,0,1,0-2.133,0V2.407H8.8V1.345A1.066,1.066,0,0,0,7.72.261ZM.264,10.938v18.12a3.224,3.224,0,0,0,3.206,3.2h25.6a3.216,3.216,0,0,0,3.2-3.2V10.938Zm5.233,3.2q.053,0,.106,0H9.87A1.066,1.066,0,0,1,10.932,15.2v4.264A1.066,1.066,0,0,1,9.87,20.527H5.6a1.066,1.066,0,0,1-1.071-1.062V15.2a1.066,1.066,0,0,1,.96-1.062l0,0Zm8.535,0q.053,0,.106,0H18.4A1.066,1.066,0,0,1,19.469,15.2v4.264A1.066,1.066,0,0,1,18.4,20.527H14.138a1.066,1.066,0,0,1-1.071-1.062V15.2a1.066,1.066,0,0,1,.96-1.062l0,0Zm8.531,0q.051,0,.1,0h4.266A1.066,1.066,0,0,1,28,15.2v4.264a1.066,1.066,0,0,1-1.073,1.062H22.665A1.066,1.066,0,0,1,21.6,19.465V15.2a1.066,1.066,0,0,1,.96-1.062Zm-15.9,2.132V18.4H8.8V16.272Zm8.535,0V18.4h2.133V16.272Zm8.535,0V18.4h2.133V16.272ZM5.6,22.661H9.87a1.066,1.066,0,0,1,1.062,1.07v4.264A1.066,1.066,0,0,1,9.87,29.058H5.6a1.066,1.066,0,0,1-1.071-1.064V23.731A1.066,1.066,0,0,1,5.6,22.661Zm8.535,0H18.4a1.066,1.066,0,0,1,1.073,1.07v4.264A1.066,1.066,0,0,1,18.4,29.058H14.138a1.066,1.066,0,0,1-1.071-1.064V23.731a1.066,1.066,0,0,1,1.071-1.07Zm8.527,0h4.266A1.066,1.066,0,0,1,28,23.731v4.264a1.066,1.066,0,0,1-1.073,1.064H22.665A1.066,1.066,0,0,1,21.6,27.995V23.731A1.066,1.066,0,0,1,22.665,22.661Zm-16,2.132v2.132H8.8V24.793Zm8.535,0v2.132h2.133V24.793Zm8.535,0v2.132h2.133V24.793Z" transform="translate(-0.264 -0.26)" fill="#3b8c67" fill-rule="evenodd"/>
  </g>
</svg>
