<svg xmlns="http://www.w3.org/2000/svg" width="40" height="40" viewBox="0 0 40 40">
  <g id="Edit_Profile" data-name="Edit Profile" transform="translate(1.25 4.25)">
    <circle id="Ellipse_666" data-name="Ellipse 666" cx="20" cy="20" r="20" transform="translate(-1.25 -4.25)" fill="#ffc258"/>
    <g id="Edit-Square" transform="translate(6.75 3.75)">
      <path id="Stroke-1" d="M12.75.75c-9,0-12,3-12,12s3,12,12,12,12-3,12-12" transform="translate(-0.75 -0.75)" fill="none" stroke="#fefefe" stroke-linecap="round" stroke-linejoin="round" stroke-width="1.5" fill-rule="evenodd"/>
      <path id="Stroke-3" d="M20.517,2.483h0a3.113,3.113,0,0,0-4.395.267s-5.666,6.4-7.63,8.621-.525,5.287-.525,5.287,3.247,1.028,5.184-1.161l7.633-8.62A3.114,3.114,0,0,0,20.517,2.483Z" transform="translate(1.25 -0.468)" fill="none" stroke="#fefefe" stroke-linecap="round" stroke-linejoin="round" stroke-width="1.5" fill-rule="evenodd"/>
      <line id="Stroke-5" x2="4.662" y2="4.128" transform="translate(15.907 3.958)" fill="none" stroke="#fefefe" stroke-linecap="round" stroke-linejoin="round" stroke-width="1.5"/>
    </g>
  </g>
</svg>
