<svg id="error" xmlns="http://www.w3.org/2000/svg" width="24" height="21" viewBox="0 0 24 21">
  <path id="Path_11808" data-name="Path 11808" d="M22.122,52.03H1.878a1.867,1.867,0,0,1-1.62-2.808L10.38,31.956a1.879,1.879,0,0,1,3.239,0L23.741,49.222A1.867,1.867,0,0,1,22.122,52.03Z" transform="translate(0 -31.03)" fill="#ff6b6b"/>
  <path id="Path_11809" data-name="Path 11809" d="M44.149,65.116l-10.1,17.211a.281.281,0,0,0,.244.423h20.2a.281.281,0,0,0,.244-.423l-10.1-17.211A.283.283,0,0,0,44.149,65.116Z" transform="translate(-32.393 -63.363)" fill="#ee5253"/>
  <g id="Group_7159" data-name="Group 7159" transform="translate(11.12 7.988)">
    <path id="Path_11810" data-name="Path 11810" d="M238.367,358.131a.856.856,0,1,1,0,1.711.869.869,0,0,1-.885-.85A.885.885,0,0,1,238.367,358.131Z" transform="translate(-237.482 -350.829)" fill="#e4eaf8"/>
    <path id="Path_11811" data-name="Path 11811" d="M239.4,210.389c-.491,0-.833-.238-.833-.578v-4.8c0-.285.335-.589.833-.589.449,0,.844.275.844.589v4.8C240.242,210.146,239.887,210.389,239.4,210.389Z" transform="translate(-238.514 -204.417)" fill="#e4eaf8"/>
  </g>
  <path id="Path_11812" data-name="Path 11812" d="M1.243,49.212,11.5,31.947a1.877,1.877,0,0,1,1.152-.864,1.91,1.91,0,0,0-2.131.864L.264,49.212a1.867,1.867,0,0,0,1.641,2.808h.979A1.867,1.867,0,0,1,1.243,49.212Z" transform="translate(-0.002 -31.021)" fill="#ee5253"/>
  <path id="Path_11813" data-name="Path 11813" d="M35.027,82.327,45.043,65.521l-.241-.4a.29.29,0,0,0-.5,0L34.048,82.327a.281.281,0,0,0,.248.423h.979A.281.281,0,0,1,35.027,82.327Z" transform="translate(-32.393 -63.363)" fill="#e24951"/>
  <g id="Group_7160" data-name="Group 7160" transform="translate(11.123 7.988)">
    <path id="Path_11814" data-name="Path 11814" d="M238.462,358.992a.863.863,0,0,1,.393-.711.869.869,0,0,0-.486-.151.885.885,0,0,0-.885.861.882.882,0,0,0,1.368.7A.841.841,0,0,1,238.462,358.992Z" transform="translate(-237.483 -350.829)" fill="#d8dce5"/>
    <path id="Path_11815" data-name="Path 11815" d="M239.544,209.811v-4.8a.577.577,0,0,1,.343-.473,1.074,1.074,0,0,0-.488-.116c-.5,0-.833.3-.833.589v4.8c0,.34.343.578.833.578a1.172,1.172,0,0,0,.489-.1A.533.533,0,0,1,239.544,209.811Z" transform="translate(-238.514 -204.417)" fill="#d8dce5"/>
  </g>
</svg>
