<svg id="facebook" xmlns="http://www.w3.org/2000/svg" width="32" height="32" viewBox="0 0 32 32">
  <path id="Path_664" data-name="Path 664" d="M32,16A16,16,0,1,1,16,0,16,16,0,0,1,32,16Zm0,0" fill="#4a7aff"/>
  <path id="Path_665" data-name="Path 665" d="M151.065,104.364c7.533-.391,13.541-7.863,13.541-17.024,0-.066,0-.132,0-.2l-9.831-11.829-10.511,13.22,5.84,7.027-2.693,4.406Zm0,0" transform="translate(-132.606 -72.378)" fill="#0053bf"/>
  <path id="Path_666" data-name="Path 666" d="M154.77,71.4v3.776s-3.682-.629-3.682,2.168v2.8h3.326L154,84.41h-2.91V95.527h-3.682V84.41l-3.148-.07v-4.2h3.088V76.928s-.2-4.785,3.8-5.663a9.129,9.129,0,0,1,3.623.14Zm0,0" transform="translate(-134.631 -67.197)" fill="#fff"/>
  <path id="Path_667" data-name="Path 667" d="M259.994,75.18V71.4a9.129,9.129,0,0,0-3.623-.14,4.944,4.944,0,0,0-.727.218V95.527h.667V84.41h2.91l.416-4.265h-3.326v-2.8C256.312,74.551,259.994,75.18,259.994,75.18Zm0,0" transform="translate(-239.334 -67.197)" fill="#dce1eb"/>
</svg>
