<svg id="Fb_Ic" xmlns="http://www.w3.org/2000/svg" width="40" height="40" viewBox="0 0 40 40">
  <circle id="Ellipse_623" data-name="Ellipse 623" cx="20" cy="20" r="20" fill="#576a7b"/>
  <g id="face" transform="translate(12 8)">
    <g id="_x30_1._Facebook" transform="translate(0 0)">
      <path id="Icon_11_" d="M32.855,23.647H29.18c-.594,0-.78-.18-.78-.631V19.382c0-.481.223-.631.78-.631h3.675V16.108a5.673,5.673,0,0,1,1-3.394,6.033,6.033,0,0,1,3.3-2.223,10.035,10.035,0,0,1,2.858-.39h3.638c.52,0,.742.18.742.6v3.424c0,.421-.223.6-.742.6-1,0-2,0-3.007.03-1,0-1.522.39-1.522,1.232-.037.9,0,1.772,0,2.7h4.306c.594,0,.817.18.817.661v3.635c0,.481-.186.631-.817.631H39.129v9.792c0,.511-.186.691-.854.691h-4.64c-.557,0-.78-.18-.78-.631Z" transform="translate(-28.4 -10.1)" fill="#fff"/>
    </g>
  </g>
</svg>
