<svg id="google" xmlns="http://www.w3.org/2000/svg" width="31.998" height="31.997" viewBox="0 0 31.998 31.997">
  <path id="Path_668" data-name="Path 668" d="M60.417,305.012A15.821,15.821,0,0,1,36.4,300.943l1.039-4.788,4.6-.855a8.5,8.5,0,0,0,8.081,5.981,8.316,8.316,0,0,0,4.95-1.612l4.425.675Z" transform="translate(-34.125 -276.845)" fill="#59c36a"/>
  <path id="Path_669" data-name="Path 669" d="M266.293,370.543l-.919-4.668-4.425-.675a8.316,8.316,0,0,1-4.95,1.612v7.562A15.974,15.974,0,0,0,266.293,370.543Z" transform="translate(-240.001 -342.377)" fill="#00a66c"/>
  <g id="Connected_Home_1_" transform="translate(0 7.899)">
    <g id="Group_4412" data-name="Group 4412" transform="translate(0)">
      <g id="Group_4411" data-name="Group 4411">
        <g id="Group_4410" data-name="Group 4410">
          <path id="Path_670" data-name="Path 670" d="M7.562,134.5a8.737,8.737,0,0,0,.356,2.456L2.275,142.6a15.556,15.556,0,0,1,0-16.2l4.529.779,1.114,4.864A8.736,8.736,0,0,0,7.562,134.5Z" transform="translate(0 -126.4)" fill="#ffda2d"/>
        </g>
      </g>
    </g>
  </g>
  <path id="Path_671" data-name="Path 671" d="M257.936,199.75a15.974,15.974,0,0,1-5.706,12.168l-5.343-5.343a8.3,8.3,0,0,0,2.606-3.075h-7.556a.928.928,0,0,1-.937-.937v-5.625a.928.928,0,0,1,.937-.937h14.8a.926.926,0,0,1,.919.769A15.9,15.9,0,0,1,257.936,199.75Z" transform="translate(-225.939 -183.751)" fill="#4086f4"/>
  <path id="Path_672" data-name="Path 672" d="M263.556,203.5a8.3,8.3,0,0,1-2.606,3.075l5.343,5.343a15.845,15.845,0,0,0,5.424-15.149A.926.926,0,0,0,270.8,196H256v7.5Z" transform="translate(-240.001 -183.751)" fill="#4175df"/>
  <path id="Path_673" data-name="Path 673" d="M60.679,4.468a.946.946,0,0,1-.262.694L56.4,9.155a.918.918,0,0,1-1.219.094,8.386,8.386,0,0,0-5.062-1.687,8.5,8.5,0,0,0-8.081,5.981L36.4,7.9A15.811,15.811,0,0,1,60.342,3.775a.986.986,0,0,1,.337.694Z" transform="translate(-34.125 0)" fill="#ff641a"/>
  <path id="Path_674" data-name="Path 674" d="M261.062,9.249a.918.918,0,0,0,1.219-.094l4.012-3.993a.945.945,0,0,0,.262-.694.986.986,0,0,0-.337-.694A15.95,15.95,0,0,0,256,0V7.562A8.385,8.385,0,0,1,261.062,9.249Z" transform="translate(-240.001 0)" fill="#f03800"/>
</svg>
