<svg xmlns="http://www.w3.org/2000/svg" width="160" height="148" viewBox="0 0 160 148">
  <g id="Group_4589" data-name="Group 4589" transform="translate(-131 -135)">
    <ellipse id="Ellipse_12" data-name="Ellipse 12" cx="80" cy="74" rx="80" ry="74" transform="translate(131 135)" fill="#e9e9e9" opacity="0.88"/>
    <g id="email_verify" data-name="email verify" transform="translate(158.841 152.43)">
      <path id="Path_675" data-name="Path 675" d="M120.956,110.512H15.476a.942.942,0,0,0-.893.94v51.168a9.715,9.715,0,0,0,9.714,9.715h87.885a9.714,9.714,0,0,0,9.714-9.715V111.453a.941.941,0,0,0-.941-.941Z" transform="translate(-14.583 -69.312)" fill="#faa923"/>
      <path id="Path_676" data-name="Path 676" d="M18.341,49.167l-.034.027-.172.177.157-.166a9.7,9.7,0,0,0-3.709,7.636v4.631a.941.941,0,0,0,.314.7L42.532,86.868a38.556,38.556,0,0,0,9.336,6.174.941.941,0,0,0,1.018-.143,23.356,23.356,0,0,1,30.708,0,.941.941,0,0,0,1.018.143,38.565,38.565,0,0,0,9.336-6.174l27.635-24.695a.941.941,0,0,0,.314-.7V56.84a9.7,9.7,0,0,0-3.725-7.649l-.051-.038c-1.4-1.017-34.6-24.9-34.6-24.9a26.167,26.167,0,0,0-30.568,0S19.62,48.236,18.347,49.163Z" transform="translate(-14.583 -19.33)" fill="#e98d0a"/>
      <path id="Path_677" data-name="Path 677" d="M121.311,94.974,93.948,119.426a38.566,38.566,0,0,1-9.336,6.174.942.942,0,0,1-1.018-.143,23.356,23.356,0,0,0-30.708,0,.942.942,0,0,1-1.018.143,38.557,38.557,0,0,1-9.336-6.174L15.169,94.974a9.7,9.7,0,0,0-.586,3.331v4.631a.941.941,0,0,0,.314.7l27.635,24.695a38.558,38.558,0,0,0,9.336,6.174.941.941,0,0,0,1.018-.143,23.356,23.356,0,0,1,30.708,0,.941.941,0,0,0,1.018.143,38.566,38.566,0,0,0,9.336-6.174l27.635-24.695a.941.941,0,0,0,.314-.7V98.3A9.693,9.693,0,0,0,121.311,94.974Z" transform="translate(-14.583 -60.795)" fill="#d6820b"/>
      <path id="Path_678" data-name="Path 678" d="M57.719,97.47a.94.94,0,0,0,.263.4l7.155,6.394a38.557,38.557,0,0,0,9.336,6.174.941.941,0,0,0,1.018-.143,23.356,23.356,0,0,1,30.708,0,.941.941,0,0,0,1.018.143,38.566,38.566,0,0,0,9.336-6.174l7.155-6.394a.939.939,0,0,0,.263-.4,35.023,35.023,0,1,0-66.253,0Z" transform="translate(-37.188 -36.722)" fill="#238d76"/>
      <path id="Path_679" data-name="Path 679" d="M125.964,141,117.1,148.92a38.564,38.564,0,0,1-9.336,6.174.941.941,0,0,1-1.018-.143,23.357,23.357,0,0,0-30.708,0,.941.941,0,0,1-1.018.143,38.554,38.554,0,0,1-9.336-6.174L56.815,141a34.788,34.788,0,0,0,1.448,5.773.94.94,0,0,0,.263.4l7.155,6.394a38.557,38.557,0,0,0,9.336,6.174.941.941,0,0,0,1.018-.143,23.356,23.356,0,0,1,30.708,0,.941.941,0,0,0,1.018.143,38.567,38.567,0,0,0,9.336-6.174l7.155-6.394a.939.939,0,0,0,.263-.4A34.743,34.743,0,0,0,125.964,141Z" transform="translate(-37.733 -86.022)" fill="#629143"/>
      <path id="Path_680" data-name="Path 680" d="M88.254,110.825l10.094,9.618a5.428,5.428,0,0,0,7.489,0l21.311-20.311a5.428,5.428,0,1,0-7.489-7.858l-17.567,16.742-6.349-6.05a5.428,5.428,0,1,0-7.488,7.859Z" transform="translate(-54.044 -58.493)" fill="#f3f8e9"/>
      <path id="Path_681" data-name="Path 681" d="M25.949,199.839a.941.941,0,0,0,.221,1.551,9.672,9.672,0,0,0,4.185.946H118.24a9.674,9.674,0,0,0,4.186-.946.942.942,0,0,0,.221-1.551L91.115,171.662a25.239,25.239,0,0,0-33.635,0Z" transform="translate(-20.641 -99.312)" fill="#fbc02a"/>
    </g>
  </g>
</svg>
