<svg xmlns="http://www.w3.org/2000/svg" width="104" height="112" viewBox="0 0 104 112">
  <g id="Group_7252" data-name="Group 7252" transform="translate(94.5 -478)">
    <g id="Subs_Number_Ic" transform="translate(-603.5 -170)">
      <rect id="Rectangle_2291" data-name="Rectangle 2291" width="104" height="112" rx="24" transform="translate(509 648)" fill="#3b8c67" opacity="0.25"/>
      <g id="subss" transform="translate(529 672)">
        <path id="Path_11870" data-name="Path 11870" d="M41.736,40.111a3.71,3.71,0,0,1,7.419,0,3.712,3.712,0,0,1,7.423.023A3.711,3.711,0,0,1,64,40.176V54.491A9.519,9.519,0,0,1,54.491,64H43.822a9.518,9.518,0,0,1-9.508-9.509V27.414a3.711,3.711,0,0,1,7.422,0Zm-23.581-6.9V32.161a8.14,8.14,0,0,1-6.524-5.921,2.064,2.064,0,1,1,4.006-1c.57,2.285,2.944,3.04,4.8,3a5.567,5.567,0,0,0,3.854-1.413,1.873,1.873,0,0,0,.427-1.555c-.133-1.093-.8-2.433-4.815-3.092-6.1-1-7.525-4.191-7.646-6.69-.168-3.441,2.2-6.32,5.9-7.181V7.23a2.065,2.065,0,1,1,4.129,0V8.293a8.112,8.112,0,0,1,5.882,4.892,2.065,2.065,0,0,1-3.808,1.6,4.23,4.23,0,0,0-4.1-2.59l-.041,0H20.2a5.338,5.338,0,0,0-1.075.13c-.476.107-2.847.759-2.739,2.965.029.587.1,2.146,4.192,2.818a13.522,13.522,0,0,1,4.906,1.622,6.689,6.689,0,0,1,3.339,5.045,5.972,5.972,0,0,1-1.4,4.753,8.761,8.761,0,0,1-5.131,2.664v1.014a2.065,2.065,0,1,1-4.129,0ZM20.219,0a20.219,20.219,0,1,0,9.965,37.815v-10.4a7.842,7.842,0,0,1,10.251-7.46A20.218,20.218,0,0,0,20.219,0Z" transform="translate(0 0)" fill="#3b8c67" fill-rule="evenodd"/>
      </g>
    </g>
  </g>
</svg>
