<svg xmlns="http://www.w3.org/2000/svg" width="104" height="112" viewBox="0 0 104 112">
  <g id="Group_7253" data-name="Group 7253" transform="translate(95 -479)">
    <g id="StudentsTotalNumbes_Ic" transform="translate(-1551.909 -21)">
      <rect id="Rectangle_2293" data-name="Rectangle 2293" width="104" height="112" rx="24" transform="translate(1456.909 500)" fill="#3b8c67" opacity="0.25"/>
      <g id="stu" transform="translate(1476.91 524)">
        <g id="Group_7247" data-name="Group 7247">
          <path id="Path_11871" data-name="Path 11871" d="M17.565,31.311c0-4.943,3.673-8.951,8.2-8.951s8.2,4.007,8.2,8.951-3.673,8.95-8.2,8.95S17.565,36.254,17.565,31.311ZM29.712,46.359A10.262,10.262,0,0,1,31.4,41.115a9.627,9.627,0,0,0-2.148-.243H22.29a9.673,9.673,0,0,0-2.142.24,10.313,10.313,0,0,1,1.693,5.646,8.29,8.29,0,0,1,7.871-.4Zm1.389.8a10.36,10.36,0,0,1,4.36,7.59,7,7,0,0,0,3.193.781c4.175,0,7.559-3.692,7.559-8.247s-3.384-8.246-7.559-8.246C34.517,39.04,31.164,42.666,31.1,47.162ZM26.149,64.048c4.174,0,7.558-3.693,7.558-8.246s-3.384-8.246-7.558-8.246-7.56,3.692-7.56,8.246S21.975,64.048,26.149,64.048Zm3.206.561H22.942c-5.336,0-9.679,4.737-9.679,10.56v8.558l.02.134.54.183A40.72,40.72,0,0,0,26.983,86.36c7.112,0,11.236-2.213,11.49-2.354l.505-.279h.054V75.169C39.032,69.346,34.692,64.609,29.355,64.609ZM41.862,56.1H35.5a10.605,10.605,0,0,1-2.875,7.079,12.451,12.451,0,0,1,8.214,12.007v2.637a24.3,24.3,0,0,0,10.143-2.325l.505-.28h.054v-8.56C51.539,60.833,47.2,56.1,41.862,56.1Zm1.7-17.232a10.358,10.358,0,0,1,4.359,7.591,7,7,0,0,0,3.193.78c4.176,0,7.559-3.692,7.559-8.246s-3.384-8.246-7.559-8.246C46.979,30.743,43.626,34.369,43.563,38.864ZM54.322,47.8H47.959a10.6,10.6,0,0,1-2.875,7.079A12.451,12.451,0,0,1,53.3,66.884v2.637A24.275,24.275,0,0,0,63.441,67.2l.5-.279H64V58.356C64,52.535,59.659,47.8,54.322,47.8ZM12.886,55.534a7.058,7.058,0,0,0,4.02-1.273,10.42,10.42,0,0,1,3.516-6.509c.008-.155.021-.308.021-.464,0-4.555-3.385-8.246-7.557-8.246s-7.559,3.691-7.559,8.246S8.71,55.534,12.886,55.534Zm6.788,7.642A10.611,10.611,0,0,1,16.8,56.135c-.235-.019-.469-.038-.71-.038H9.679C4.342,56.1,0,60.833,0,66.655v8.559l.02.133.541.184a41.834,41.834,0,0,0,10.9,2.234V75.181A12.45,12.45,0,0,1,19.674,63.175Z" transform="translate(0 -22.36)" fill="#3b8c67"/>
        </g>
      </g>
    </g>
  </g>
</svg>
