<svg xmlns="http://www.w3.org/2000/svg" width="40" height="40" viewBox="0 0 40 40">
  <g id="Iconly_Curved_Notification" data-name="Iconly/Curved/Notification" transform="translate(91.484 210.485)">
    <circle id="Ellipse_665" data-name="Ellipse 665" cx="20" cy="20" r="20" transform="translate(-91.484 -210.485)" fill="#f6eee3"/>
    <g id="vuesax_bulk_notification-bing" data-name="vuesax/bulk/notification-bing" transform="translate(-193.484 -392.503)">
      <g id="notification-bing" transform="translate(108 188)">
        <path id="Vector" d="M19.782,16.67a3.063,3.063,0,0,1-1.913,1.844,25.909,25.909,0,0,1-3.861.957c-.128.023-.257.047-.385.058-.21.035-.42.058-.63.082-.257.035-.525.058-.793.082-.735.058-1.458.093-2.193.093s-1.493-.035-2.228-.105c-.315-.023-.618-.058-.921-.105-.175-.023-.35-.047-.513-.07-.128-.023-.257-.035-.385-.058A24.1,24.1,0,0,1,2.134,18.5,3.1,3.1,0,0,1,.175,16.67a3.1,3.1,0,0,1,.3-2.662L1.8,11.814a4.781,4.781,0,0,0,.537-1.961V7.681a7.669,7.669,0,1,1,15.338,0V9.853a4.621,4.621,0,0,0,.548,1.961l1.318,2.195A3.1,3.1,0,0,1,19.782,16.67Z" transform="translate(4.016 2.393)" fill="#3b8c67" opacity="0.4"/>
        <path id="Vector-2" data-name="Vector" d="M.887,5.393A.887.887,0,0,1,0,4.506V.887a.887.887,0,1,1,1.774,0V4.506A.9.9,0,0,1,.887,5.393Z" transform="translate(13.113 7.162)" fill="#3b8c67"/>
        <path id="Vector-3" data-name="Vector" d="M6.6.012a3.519,3.519,0,0,1-3.3,2.323A3.462,3.462,0,0,1,.817,1.3,3.223,3.223,0,0,1,0,0C.152.023.3.035.467.058c.268.035.549.07.829.093.665.058,1.342.093,2.02.093S4.646.21,5.3.152c.245-.023.49-.035.724-.07Z" transform="translate(10.708 23.33)" fill="#3b8c67"/>
        <path id="Vector-4" data-name="Vector" d="M0,0H28V28H0Z" fill="none" opacity="0"/>
        <path id="Vector-5" data-name="Vector" d="M5.837,2.918A2.918,2.918,0,1,1,2.918,0,2.918,2.918,0,0,1,5.837,2.918Z" transform="translate(18.661 2.335)" fill="#e70b00"/>
      </g>
    </g>
  </g>
</svg>
