<svg xmlns="http://www.w3.org/2000/svg" xmlns:xlink="http://www.w3.org/1999/xlink" width="24" height="24" viewBox="0 0 24 24">
  <defs>
    <clipPath id="clip-path">
      <path id="Path_11834" data-name="Path 11834" d="M0-47.5H24v24H0Z" fill="#fefefe"/>
    </clipPath>
  </defs>
  <g id="Language_Ic" transform="translate(0 47.5)" clip-path="url(#clip-path)">
    <path id="Path_11833" data-name="Path 11833" d="M-15.681-19.912a10.913,10.913,0,0,0,1.654-2.651h1.581a10.139,10.139,0,0,1-3.235,2.651M-28.21-22.563h1.581a10.894,10.894,0,0,0,1.654,2.651,10.132,10.132,0,0,1-3.235-2.651m3.235-15.284a10.886,10.886,0,0,0-1.654,2.652H-28.21a10.141,10.141,0,0,1,3.235-2.652m12.529,2.652h-1.581a10.906,10.906,0,0,0-1.654-2.652,10.132,10.132,0,0,1,3.235,2.652m-.324,5.684a15.94,15.94,0,0,0-.776-4.421h1.96a10.022,10.022,0,0,1,1.331,4.421Zm0,1.263h2.516a10.024,10.024,0,0,1-1.331,4.421h-1.96a15.94,15.94,0,0,0,.776-4.421M-19.7-23.826v-4.421h5.664a14.713,14.713,0,0,1-.832,4.421Zm0,5v-3.738H-15.4C-16.435-20.5-17.961-19.1-19.7-18.825m-1.263-3.738v3.738c-1.735-.276-3.261-1.677-4.295-3.738Zm-5.665-5.684h5.665v4.421h-4.833a14.713,14.713,0,0,1-.832-4.421m-1.262-1.263H-30.4a10.038,10.038,0,0,1,1.331-4.421h1.961a15.94,15.94,0,0,0-.776,4.421m6.927-4.421v4.421h-5.665a14.713,14.713,0,0,1,.832-4.421h4.833Zm0-5v3.739h-4.295c1.034-2.061,2.56-3.463,4.295-3.739m6.1,5a14.713,14.713,0,0,1,.832,4.421H-19.7v-4.421ZM-19.7-35.195v-3.739c1.735.276,3.26,1.677,4.293,3.739ZM-30.4-28.247h2.516a15.917,15.917,0,0,0,.776,4.421h-1.961A10.04,10.04,0,0,1-30.4-28.247m10.074-12A11.369,11.369,0,0,0-31.7-28.879,11.369,11.369,0,0,0-20.328-17.511,11.369,11.369,0,0,0-8.959-28.879,11.369,11.369,0,0,0-20.328-40.247" transform="translate(32.328 -6.621)" fill="#fefefe"/>
  </g>
</svg>
