<svg xmlns="http://www.w3.org/2000/svg" width="32" height="32" viewBox="0 0 32 32">
  <g id="Last_Sub_Ic_-My_Students_Screen_" data-name="Last Sub_Ic -My Students Screen " transform="translate(-353.262 -298.957)">
    <path id="Path_763" data-name="Path 763" d="M49.738,45.08a15.558,15.558,0,0,1-1.808.382c0,1.067.359,2.847-.943,3.88-1.185.96-2.577.421-3.987.056v.045l4.189,4.189a.562.562,0,0,0,.949-.286l.724-3.6,3.571-.724a.561.561,0,0,0,.286-.949Z" transform="translate(332.377 277.16)" fill="#3b8c67"/>
    <path id="Path_764" data-name="Path 764" d="M7.446,49.742l.724,3.6a.561.561,0,0,0,.949.286l4.189-4.189v-.045c-1.4.359-2.807.9-3.992-.056s-.977-2.465-.938-3.88a15.38,15.38,0,0,1-1.836-.387l-2.982,3a.562.562,0,0,0,.286.949Z" transform="translate(349.867 277.164)" fill="#3b8c67"/>
    <path id="Path_765" data-name="Path 765" d="M24.484,32.091A9.546,9.546,0,1,0,15,22.545,9.515,9.515,0,0,0,24.484,32.091ZM18.827,20.17l3.565-.522,1.59-3.251a.556.556,0,0,1,1,0l1.59,3.251,3.565.522a.562.562,0,0,1,.312.955L27.87,23.668l.614,3.571a.564.564,0,0,1-.126.46.556.556,0,0,1-.432.2c-.245,0-.112,0-3.448-1.752l-3.186,1.684a.555.555,0,0,1-.594-.039.563.563,0,0,1-.221-.556l.619-3.566-2.583-2.544a.562.562,0,0,1,.312-.955Z" transform="translate(344.777 291.229)" fill="#3b8c67"/>
    <path id="Path_766" data-name="Path 766" d="M7.556,21.3c.162.724-1.678,2.453-1.063,3.705s3.1.91,3.551,1.471-.459,2.919.638,3.8,3.188-.528,3.836-.213.85,2.807,2.237,3.144,2.589-1.87,3.344-1.87,2.052,2.167,3.355,1.87,1.594-2.841,2.237-3.144,2.74,1.089,3.836.213.2-3.239.638-3.8,2.947-.213,3.551-1.471-1.225-2.992-1.063-3.705S35.2,19.845,35.2,18.425s-2.4-2.2-2.556-2.874,1.678-2.453,1.063-3.705-3.1-.91-3.54-1.471.459-2.919-.638-3.8-3.188.528-3.836.213-.85-2.807-2.237-3.144-2.6,1.87-3.355,1.87S18.08,3.34,16.744,3.643,15.15,6.483,14.507,6.787s-2.74-1.089-3.836-.213-.2,3.239-.638,3.8-2.936.191-3.54,1.471,1.225,2.992,1.063,3.705S5,17,5,18.425,7.4,20.626,7.556,21.3ZM20.1,7.758A10.667,10.667,0,1,1,9.474,18.425,10.646,10.646,0,0,1,20.1,7.758Z" transform="translate(349.164 295.35)" fill="#3b8c67"/>
  </g>
</svg>
