<svg id="layer1" xmlns="http://www.w3.org/2000/svg" width="24" height="23.999" viewBox="0 0 24 23.999">
  <path id="rect825" d="M5.856.261a.8.8,0,0,0-.791.813v.8h-2.4a2.42,2.42,0,0,0-2.4,2.4v2.4h24v-2.4a2.413,2.413,0,0,0-2.4-2.4h-2.4v-.8a.8.8,0,1,0-1.6,0v.8h-4.8v-.8a.8.8,0,1,0-1.6,0v.8h-4.8v-.8A.8.8,0,0,0,5.856.261ZM.264,8.268V21.858a2.418,2.418,0,0,0,2.4,2.4h19.2a2.412,2.412,0,0,0,2.4-2.4V8.268Zm3.925,2.4q.04,0,.08,0h3.2a.8.8,0,0,1,.8.8v3.2a.8.8,0,0,1-.8.8h-3.2a.8.8,0,0,1-.8-.8v-3.2a.8.8,0,0,1,.72-.8l0,0Zm6.4,0q.04,0,.08,0h3.194a.8.8,0,0,1,.8.8v3.2a.8.8,0,0,1-.8.8H10.67a.8.8,0,0,1-.8-.8v-3.2a.8.8,0,0,1,.72-.8l0,0Zm6.4,0q.038,0,.077,0h3.2a.8.8,0,0,1,.8.8v3.2a.8.8,0,0,1-.8.8h-3.2a.8.8,0,0,1-.8-.8v-3.2a.8.8,0,0,1,.72-.8Zm-11.923,1.6v1.592h1.6V12.268Zm6.4,0v1.592h1.6V12.268Zm6.4,0v1.592h1.6V12.268ZM4.269,17.06h3.2a.8.8,0,0,1,.8.8v3.2a.8.8,0,0,1-.8.8h-3.2a.8.8,0,0,1-.8-.8v-3.2a.8.8,0,0,1,.8-.8Zm6.4,0h3.194a.8.8,0,0,1,.8.8v3.2a.8.8,0,0,1-.8.8H10.67a.8.8,0,0,1-.8-.8v-3.2a.8.8,0,0,1,.8-.8Zm6.4,0h3.2a.8.8,0,0,1,.8.8v3.2a.8.8,0,0,1-.8.8h-3.2a.8.8,0,0,1-.8-.8v-3.2A.8.8,0,0,1,17.066,17.06Zm-12,1.6v1.6h1.6v-1.6Zm6.4,0v1.6h1.6v-1.6Zm6.4,0v1.6h1.6v-1.6Z" transform="translate(-0.264 -0.26)" fill="#3b8c67" fill-rule="evenodd"/>
</svg>
