<svg id="LinkedIn_Ic" xmlns="http://www.w3.org/2000/svg" width="40" height="40" viewBox="0 0 40 40">
  <circle id="Ellipse_625" data-name="Ellipse 625" cx="20" cy="20" r="20" fill="#576a7b"/>
  <g id="linkedin" transform="translate(8 8)">
    <g id="_x31_0.Linkedin" transform="translate(0 0)">
      <path id="Path_11133" data-name="Path 11133" d="M53.814,51.714V42.922c0-4.321-.93-7.622-5.971-7.622a5.21,5.21,0,0,0-4.711,2.581h-.06V35.69H38.3V51.714h4.981V43.762c0-2.1.39-4.111,2.971-4.111,2.551,0,2.581,2.371,2.581,4.231v7.8h4.981Z" transform="translate(-29.814 -27.714)" fill="#fff"/>
      <path id="Path_11134" data-name="Path 11134" d="M11.3,36.6h4.981V52.624H11.3Z" transform="translate(-10.91 -28.624)" fill="#fff"/>
      <path id="Path_11135" data-name="Path 11135" d="M12.881,10a2.9,2.9,0,1,0,2.881,2.881A2.881,2.881,0,0,0,12.881,10Z" transform="translate(-10 -10)" fill="#fff"/>
    </g>
  </g>
</svg>
