<svg xmlns="http://www.w3.org/2000/svg" width="23.969" height="23.969" viewBox="0 0 23.969 23.969">
  <g id="Money_bag_IC" data-name="Money bag_IC" transform="translate(-2.732 -0.017)">
    <path id="Path_11818" data-name="Path 11818" d="M49.736,5.215C51.935,3.684,53.4.233,52.5.082c-1.2-.2-3.809.679-5.07.834C45.642,1.1,43.694-.692,42.6.3c-.889.81.637,3.756,3.025,5.039-7.123,2.9-17.134,17.48.331,18.538C70.124,25.345,58.023,8.045,49.736,5.215Zm2.075,11.5a2.058,2.058,0,0,1-.98,1.431,4.26,4.26,0,0,1-2.006.588v.628a.555.555,0,0,1-.24.442.835.835,0,0,1-.768.094.6.6,0,0,1-.414-.536v-.686c-.122-.019-.244-.042-.364-.07a3.662,3.662,0,0,1-1.739-.887,2.563,2.563,0,0,1-.536-.735c-.033-.07-.063-.141-.089-.213a.939.939,0,0,1-.056-.2.505.505,0,0,1,.077-.332.759.759,0,0,1,.693-.314.705.705,0,0,1,.611.4c.027.068.045.138.076.2a1.226,1.226,0,0,0,.109.194,1.581,1.581,0,0,0,.312.331,2.275,2.275,0,0,0,.9.409V15.128a5.64,5.64,0,0,1-1.864-.668,1.926,1.926,0,0,1-.629-.627,1.685,1.685,0,0,1-.22-.844,1.723,1.723,0,0,1,.213-.855,2.153,2.153,0,0,1,.583-.664,3.945,3.945,0,0,1,1.917-.7v-.652a.555.555,0,0,1,.24-.442.835.835,0,0,1,.768-.094.6.6,0,0,1,.414.536v.648q.139.015.278.035a3.84,3.84,0,0,1,1.856.747,2.3,2.3,0,0,1,.568.677,1.954,1.954,0,0,1,.1.216,1.136,1.136,0,0,1,.067.21.5.5,0,0,1-.059.336.746.746,0,0,1-.675.34.721.721,0,0,1-.632-.378c-.03-.064-.045-.133-.075-.2a.989.989,0,0,0-.116-.186,1.25,1.25,0,0,0-.336-.292,2.6,2.6,0,0,0-.976-.316v2.232a10.467,10.467,0,0,1,1.214.3,2.82,2.82,0,0,1,1.482.962c-.05-.073-.1-.145,0,0s.052.076,0,0A1.8,1.8,0,0,1,51.812,16.711Z" transform="translate(-33.506 0.016)" fill="#3b8c67"/>
  </g>
</svg>
