<svg xmlns="http://www.w3.org/2000/svg" width="25.5" height="25.5" viewBox="0 0 25.5 25.5">
  <g id="My_Students_Ic-Active" data-name="My Students_Ic-Active" transform="translate(0.75 0.75)">
    <path id="Stroke-1" d="M11.987,19.945c-3.786,0-7.021-.7-7.021-3.484s3.213-5.215,7.021-5.215c3.786,0,7.021,2.4,7.021,5.191S15.794,19.945,11.987,19.945Z" transform="translate(0.013 4.055)" fill="#fefefe" stroke="#fefefe" stroke-linecap="round" stroke-linejoin="round" stroke-width="1.5" fill-rule="evenodd"/>
    <path id="Stroke-3" d="M11.669,11.69c2.511,0,4.546-2.448,4.546-5.469S14.18.75,11.669.75,7.122,3.2,7.122,6.22s2.012,5.459,4.515,5.469Z" transform="translate(0.331 -0.75)" fill="#fefefe" stroke="#fefefe" stroke-linecap="round" stroke-linejoin="round" stroke-width="1.5" fill-rule="evenodd"/>
    <path id="Stroke-5" d="M17.392,9.767A4.069,4.069,0,0,0,19.93,5.786,4.009,4.009,0,0,0,17.2,1.749" transform="translate(2.081 -0.329)" fill="#fefefe" stroke="#fefefe" stroke-linecap="round" stroke-linejoin="round" stroke-width="1.5" fill-rule="evenodd"/>
    <path id="Stroke-7" d="M17.943,10.544c2.071,0,3.84,1.69,3.84,3.2a2.251,2.251,0,0,1-1.536,2.117" transform="translate(2.217 3.667)" fill="#fefefe" stroke="#fefefe" stroke-linecap="round" stroke-linejoin="round" stroke-width="1.5" fill-rule="evenodd"/>
    <path id="Stroke-9" d="M4.973,9.767A4.068,4.068,0,0,1,2.434,5.786,4.01,4.01,0,0,1,5.168,1.749" transform="translate(-0.445 -0.329)" fill="#fefefe" stroke="#fefefe" stroke-linecap="round" stroke-linejoin="round" stroke-width="1.5" fill-rule="evenodd"/>
    <path id="Stroke-11" d="M4.59,10.544c-2.071,0-3.84,1.69-3.84,3.2A2.25,2.25,0,0,0,2.287,15.86" transform="translate(-0.75 3.667)" fill="#fefefe" stroke="#fefefe" stroke-linecap="round" stroke-linejoin="round" stroke-width="1.5" fill-rule="evenodd"/>
  </g>
</svg>
