<svg xmlns="http://www.w3.org/2000/svg" width="25.503" height="25.5" viewBox="0 0 25.503 25.5">
  <g id="Package_Prices_Ic_-Active" data-name="Package Prices_Ic -Active" transform="translate(0.75 0.75)">
    <path id="Stroke-1" d="M24,14.895c-3.4,0-3.4-5.791,0-5.791C24,2.395,24,0,12,0S0,2.395,0,9.1c3.4,0,3.4,5.791,0,5.791C0,21.605,0,24,12,24S24,21.605,24,14.895Z" transform="translate(0 0)" fill="#fefefe" stroke="#fefefe" stroke-linecap="round" stroke-linejoin="round" stroke-width="1.5" fill-rule="evenodd"/>
    <path id="Stroke-3" d="M10.377,5.76c-.905,0-.991,1.576-1.529,2.133S6.634,7.814,6.4,8.8s1.275,1.325,1.462,2.173-.734,2.04.052,2.635,1.634-.749,2.462-.749,1.675,1.341,2.462.749-.134-1.787.052-2.635S14.584,9.791,14.353,8.8s-1.907-.352-2.446-.908S11.282,5.76,10.377,5.76Z" transform="translate(1.623 2.24)" fill="none" stroke="#3b8c67" stroke-linecap="round" stroke-linejoin="round" stroke-width="1.5" fill-rule="evenodd"/>
  </g>
</svg>
