<svg xmlns="http://www.w3.org/2000/svg" width="24" height="24" viewBox="0 0 24 24">
  <path id="Phone_Ic" d="M11.049,6.841c-.312-3.6-4.061-5.359-4.22-5.431a.8.8,0,0,0-.476-.064c-4.328.718-4.978,3.239-5,3.343a.811.811,0,0,0,.016.442C6.527,21.155,17.254,24.125,20.78,25.1c.271.075.5.136.666.191a.809.809,0,0,0,.59-.034c.108-.049,2.656-1.25,3.279-5.168a.816.816,0,0,0-.079-.5,7.758,7.758,0,0,0-5.085-3.543.8.8,0,0,0-.723.172,10.926,10.926,0,0,1-3.472,2.168C11.3,16.108,8.7,11.734,8.6,10.9c-.057-.466,1.011-2.1,2.239-3.437a.817.817,0,0,0,.213-.627Z" transform="translate(-1.326 -1.333)" fill="#3b8c67"/>
</svg>
