<svg xmlns="http://www.w3.org/2000/svg" width="25.5" height="25.5" viewBox="0 0 25.5 25.5">
  <g id="Previous_sessions_List_Ic" data-name="Previous sessions List_Ic" transform="translate(0.75 0.75)">
    <path id="Stroke-1" d="M4.468,13.754,8.231,8.891l4.293,3.352,3.683-4.727" transform="translate(1.12 1.875)" fill="none" stroke="#fefefe" stroke-linecap="round" stroke-linejoin="round" stroke-width="1.5" fill-rule="evenodd"/>
    <path id="Stroke-2" d="M17.7,0a2.4,2.4,0,1,1-2.4,2.4A2.4,2.4,0,0,1,17.7,0Z" transform="translate(3.897 0)" fill="none" stroke="#fefefe" stroke-linecap="round" stroke-linejoin="round" stroke-width="1.5" fill-rule="evenodd"/>
    <path id="Stroke-4" d="M22.957,8.472a25.92,25.92,0,0,1,.243,3.792c0,8.671-2.9,11.56-11.6,11.56S0,20.934,0,12.263,2.9.7,11.6.7a26.338,26.338,0,0,1,3.741.234" transform="translate(0 0.176)" fill="none" stroke="#fefefe" stroke-linecap="round" stroke-linejoin="round" stroke-width="1.5" fill-rule="evenodd"/>
  </g>
</svg>
