<svg xmlns="http://www.w3.org/2000/svg" width="24" height="24" viewBox="0 0 24 24">
  <g id="Profile_Ic" transform="translate(-108.435 -252.842)">
    <g id="frame" transform="translate(112.6 253.25)">
      <path id="Vector" d="M6.065,11.756H5.975a.615.615,0,0,0-.2,0,5.833,5.833,0,1,1,.329,0ZM5.884,1.7a4.179,4.179,0,0,0-.159,8.355,1.871,1.871,0,0,1,.363,0,4.18,4.18,0,0,0-.2-8.355Z" transform="translate(2.265 -0.408)" fill="#fefefe"/>
      <path id="Vector-2" data-name="Vector" d="M0,0H24V24H0Z" transform="translate(-4.165 -0.408)" fill="none" opacity="0"/>
      <path id="Vector-3" data-name="Vector" d="M8.5,11.464a11.012,11.012,0,0,1-6.086-1.7A4.873,4.873,0,0,1,0,5.739,4.924,4.924,0,0,1,2.414,1.692a11.791,11.791,0,0,1,12.172,0A4.9,4.9,0,0,1,17,5.717a4.924,4.924,0,0,1-2.414,4.047A11.039,11.039,0,0,1,8.5,11.464ZM3.346,3.12a3.264,3.264,0,0,0-1.662,2.63A3.256,3.256,0,0,0,3.346,8.358a10.063,10.063,0,0,0,10.308,0,3.264,3.264,0,0,0,1.662-2.63A3.256,3.256,0,0,0,13.654,3.12,10.115,10.115,0,0,0,3.346,3.12Z" transform="translate(-0.165 12.127)" fill="#fefefe"/>
    </g>
  </g>
</svg>
