<svg xmlns="http://www.w3.org/2000/svg" xmlns:xlink="http://www.w3.org/1999/xlink" width="104" height="104" viewBox="0 0 104 104">
  <defs>
    <filter id="Ellipse_675" x="0" y="0" width="104" height="104" filterUnits="userSpaceOnUse">
      <feOffset dy="2" input="SourceAlpha"/>
      <feGaussianBlur stdDeviation="4" result="blur"/>
      <feFlood flood-color="#3b8c67" flood-opacity="0.6"/>
      <feComposite operator="in" in2="blur"/>
      <feComposite in="SourceGraphic"/>
    </filter>
  </defs>
  <g id="Session_Ic" transform="translate(-321 -191)">
    <g transform="matrix(1, 0, 0, 1, 321, 191)" filter="url(#Ellipse_675)">
      <circle id="Ellipse_675-2" data-name="Ellipse 675" cx="40" cy="40" r="40" transform="translate(12 10)" fill="#fff"/>
    </g>
    <g id="Q" transform="translate(341 209)">
      <g id="reading" transform="translate(0 0)">
        <path id="Path_11854" data-name="Path 11854" d="M32.086,50.689,41.5,53.7l-3.911,3.911A21.98,21.98,0,0,1,6.507,26.524L8.021,25V41.585A2.005,2.005,0,0,0,9.415,43.49l3.62,1.153v9.7a1.745,1.745,0,0,0,1.745,1.745c.812,0,17.016-5.395,17.307-5.395Z" transform="translate(-0.07 -0.041)" fill="#ffc53e" opacity="0.3"/>
        <path id="Path_11855" data-name="Path 11855" d="M56.092,39.155V14.77a2.005,2.005,0,0,0-2.617-1.905l-3.4,1.083V10.939a2.005,2.005,0,0,0-2.727-1.865L32.027,15.04,21.92,11.11l4.592-4.592C40.4-7.37,64.034,2.657,64.034,22.059,64.034,30.211,60.253,34.954,56.092,39.155Z" transform="translate(-0.034 -0.055)" fill="#ffc53e" opacity="0.3"/>
        <path id="Path_11856" data-name="Path 11856" d="M55.879,12.312c-1.6-1.173-3.007-.331-6.084.652a1,1,0,0,0,.6,1.905c3.638-1.153,3.758-1.334,4.3-.933s.411-1.464.411,27.685a1,1,0,0,1-.7,1l-22.35,7.049-22.35-7.1a1,1,0,0,1-.7-1c0-29.169-.18-27.254.411-27.685s.722-.2,4.3.933a1,1,0,0,0,.6-1.905c-3.167-1-4.51-1.8-6.084-.652A3.009,3.009,0,0,0,7,14.738V41.621a3.008,3.008,0,0,0,2.095,2.868l2.917.922v8.964a2.747,2.747,0,0,0,2.746,2.747c.631,0-.451.281,17.3-5.344,17.88,5.665,16.677,5.344,17.3,5.344A2.747,2.747,0,0,0,52.1,54.375V45.411l2.917-.922a3.008,3.008,0,0,0,2.095-2.868V14.738a3.009,3.009,0,0,0-1.233-2.427ZM15.018,55.117a.762.762,0,0,1-1-.7V46.093l14.723,4.683Zm35.079-.7a.742.742,0,0,1-.742.742c-.2,0,.561.221-13.971-4.392L50.1,46.093Z" transform="translate(-0.051 -0.077)" fill="#1aa400"/>
        <path id="Path_11857" data-name="Path 11857" d="M46.991,8.131,32.04,13.946,17.089,8.131A3.007,3.007,0,0,0,13,10.928c0,29.62-.261,27.735.641,28.076,24.521,9.546,16.284,6.3,18.038,7.019.581.231-.832.632,18.789-7.019.912-.351.641,1.454.641-28.076a3.006,3.006,0,0,0-4.119-2.8Zm.722,1.875a1,1,0,0,1,1.363.933V32.4c-12.556,4.883-14.029,5.074-15.9,7.159-.19.211-.13,2.737-.13-23.844ZM15,10.928a1,1,0,0,1,1.363-.922l14.671,5.7V39.7C29.224,37.56,28.392,37.6,15,32.386Zm0,23.6c11.915,4.643,14.771,4.923,15.823,9.024L15,37.4ZM49.076,37.4c-17.537,6.818-15.843,6.217-15.793,6.016A6.306,6.306,0,0,1,37.05,39.2l12.025-4.673Z" transform="translate(-0.035 -0.034)" fill="#ffc53e"/>
      </g>
      <g id="XMLID_1991_" transform="translate(33.929 30.014)">
        <path id="XMLID_1992_" d="M0,0H12.034V1.206H0Z" transform="matrix(-0.946, 0.325, -0.325, -0.946, 11.776, 1.141)" fill="#399349"/>
      </g>
      <g id="XMLID_1989_" transform="translate(33.929 23.406)">
        <path id="XMLID_1990_" d="M0,0H12.034V1.206H0Z" transform="matrix(-0.946, 0.325, -0.325, -0.946, 11.776, 1.141)" fill="#399349"/>
      </g>
      <g id="XMLID_1987_" transform="translate(33.929 16.799)">
        <path id="XMLID_1988_" d="M0,0H12.034V1.206H0Z" transform="matrix(-0.946, 0.325, -0.325, -0.946, 11.776, 1.141)" fill="#399349"/>
      </g>
      <g id="XMLID_1722_" transform="translate(16.273 15.78)">
        <path id="XMLID_1712_" d="M0,0H12.034V1.206H0Z" transform="matrix(0.946, 0.325, -0.325, 0.946, 0.392, 0)" fill="#399349"/>
      </g>
      <g id="XMLID_1721_" transform="translate(16.273 21.637)">
        <path id="XMLID_1711_" d="M0,0H12.034V1.206H0Z" transform="matrix(0.946, 0.325, -0.325, 0.946, 0.392, 0)" fill="#399349"/>
      </g>
      <g id="XMLID_1720_" transform="translate(16.273 27.506)">
        <path id="XMLID_1710_" d="M0,0H12.034V1.206H0Z" transform="matrix(0.946, 0.325, -0.325, 0.946, 0.392, 0)" fill="#399349"/>
      </g>
    </g>
  </g>
</svg>
