<svg xmlns="http://www.w3.org/2000/svg" xmlns:xlink="http://www.w3.org/1999/xlink" width="168" height="168" viewBox="0 0 168 168">
  <defs>
    <clipPath id="clip-path">
      <circle id="Ellipse_2" data-name="Ellipse 2" cx="84" cy="84" r="84" fill="#fff"/>
    </clipPath>
  </defs>
  <g id="Student_Img" clip-path="url(#clip-path)">
    <g id="studentt" transform="translate(0 0)">
      <circle id="Ellipse_3" data-name="Ellipse 3" cx="84" cy="84" r="84" fill="#80e29d"/>
      <path id="Path_27" data-name="Path 27" d="M122.012,122.926a82.989,82.989,0,0,1-12.817,7.1,82.286,82.286,0,0,1-10.8,3.922,83.826,83.826,0,0,1-45.928,0q-3.553-1.017-6.977-2.343c-.141-.053-.281-.105-.422-.161-1.148-.448-2.283-.925-3.405-1.422a83.191,83.191,0,0,1-12.82-7.1A41.309,41.309,0,0,1,41.659,111.3a40.5,40.5,0,0,1,10.8-4.327q.888-.217,1.793-.392,1.7-.336,3.458-.517c.337-.036.671-.069,1.011-.1q1.658-.138,3.356-.138H88.77a41.539,41.539,0,0,1,4.367.23c1.168.122,2.319.3,3.458.513q.682.133,1.354.286c.147.039.3.069.442.109a40.57,40.57,0,0,1,10.8,4.331A41.348,41.348,0,0,1,122.012,122.926Z" transform="translate(9.161 30.706)" fill="#dd636e"/>
      <path id="Path_28" data-name="Path 28" d="M62.081,105.831c-9.6,0-16.114,13.962-16.595,25.776-.141-.053-.281-.105-.422-.161-1.148-.448-2.283-.925-3.405-1.422a83.191,83.191,0,0,1-12.82-7.1A41.309,41.309,0,0,1,41.659,111.3a40.5,40.5,0,0,1,10.8-4.327q.888-.217,1.793-.392,1.7-.336,3.458-.517c.337-.036.671-.069,1.011-.1Q60.383,105.831,62.081,105.831Z" transform="translate(9.161 30.706)" fill="#d82e3d"/>
      <path id="Path_29" data-name="Path 29" d="M70.057,123.736l-17.335,9.691-5.274-26.321,10.772-4.736" transform="translate(14.527 29.682)" fill="#4a81f6"/>
      <path id="Path_30" data-name="Path 30" d="M65,123.736l17.335,9.691,5.273-26.321-10.771-4.736" transform="translate(19.587 29.682)" fill="#61a2f9"/>
      <path id="Path_31" data-name="Path 31" d="M82.9,93.574V111.63a14.7,14.7,0,0,1-10.3,14.053,14.512,14.512,0,0,1-4.328.657,14.666,14.666,0,0,1-14.623-14.71V93.574H82.9Z" transform="translate(16.314 27.078)" fill="#efb29a"/>
      <path id="Path_32" data-name="Path 32" d="M80.935,106.623v1.144a14.7,14.7,0,0,1-10.3,14.053,14.683,14.683,0,0,1-10.181-12.137q1.466.09,2.947.09a50.273,50.273,0,0,0,17.535-3.15Z" transform="translate(18.277 30.941)" fill="#f9c5ac"/>
      <path id="Path_33" data-name="Path 33" d="M39.682,73.72A13.468,13.468,0,1,1,28.37,60.344,13.526,13.526,0,0,1,39.682,73.72Z" transform="translate(4.52 17.189)" fill="#f9c5ac"/>
      <path id="Path_34" data-name="Path 34" d="M36.584,73.68A13.526,13.526,0,0,1,25.273,87.055a50.938,50.938,0,0,1,0-26.751A13.526,13.526,0,0,1,36.584,73.68Z" transform="translate(7.617 17.229)" fill="#efb29a"/>
      <ellipse id="Ellipse_4" data-name="Ellipse 4" cx="4.814" cy="4.843" rx="4.814" ry="4.843" transform="translate(25.919 86.067)" fill="#efb29a"/>
      <path id="Path_35" data-name="Path 35" d="M96.344,73.72a13.468,13.468,0,1,0,11.311-13.376A13.526,13.526,0,0,0,96.344,73.72Z" transform="translate(28.626 17.189)" fill="#f9c5ac"/>
      <path id="Path_36" data-name="Path 36" d="M96.344,73.68a13.526,13.526,0,0,0,11.311,13.375,50.938,50.938,0,0,0,0-26.751A13.526,13.526,0,0,0,96.344,73.68Z" transform="translate(28.626 17.229)" fill="#efb29a"/>
      <ellipse id="Ellipse_5" data-name="Ellipse 5" cx="4.814" cy="4.843" rx="4.814" ry="4.843" transform="translate(133.626 86.067)" fill="#efb29a"/>
      <path id="Path_37" data-name="Path 37" d="M126.931,76.968a50.822,50.822,0,0,1-42.484,50.25,49.816,49.816,0,0,1-8.122.657A50.755,50.755,0,0,1,25.719,76.968V25.14H126.931V76.968Z" transform="translate(8.261 6.82)" fill="#f9c5ac"/>
      <path id="Path_38" data-name="Path 38" d="M98.934,39.076V67.182a6.89,6.89,0,0,0,6.87,6.91c.01-.415.016-.833.016-1.25V39.076Z" transform="translate(29.373 10.945)" fill="#595959"/>
      <path id="Path_39" data-name="Path 39" d="M85.238,127.084c-.262.046-.527.092-.792.135a50.049,50.049,0,0,1-8.122.655A50.741,50.741,0,0,1,25.735,78.218c-.01-.415-.016-.833-.016-1.25V25.139H43.563V76.967A50.833,50.833,0,0,0,85.238,127.084Z" transform="translate(8.261 6.82)" fill="#efb29a"/>
      <path id="Path_40" data-name="Path 40" d="M68.021,87.5a25.459,25.459,0,0,1-12.338-3.2,2.271,2.271,0,0,1-.888-3.075,2.245,2.245,0,0,1,3.057-.893,20.9,20.9,0,0,0,20.337,0,2.244,2.244,0,0,1,3.057.893,2.271,2.271,0,0,1-.888,3.075A25.455,25.455,0,0,1,68.021,87.5Z" transform="translate(16.565 23.075)" fill="#dd9f8a"/>
      <path id="Path_41" data-name="Path 41" d="M72.578,75.2H61.1a2.491,2.491,0,0,1,0-4.982H72.578a2.491,2.491,0,0,1,0,4.982Z" transform="translate(17.749 20.164)" fill="#efb29a"/>
      <path id="Path_42" data-name="Path 42" d="M71.434,63.264a10.167,10.167,0,1,0,20.334,0" transform="translate(21.443 18.105)" fill="#efb29a"/>
      <ellipse id="Ellipse_6" data-name="Ellipse 6" cx="7.291" cy="7.334" rx="7.291" ry="7.334" transform="translate(95.754 74.035)" fill="#2f373b"/>
      <ellipse id="Ellipse_7" data-name="Ellipse 7" cx="3.124" cy="3.143" rx="3.124" ry="3.143" transform="translate(102.959 76.932)" fill="#fff"/>
      <path id="Path_43" data-name="Path 43" d="M42.781,63.264a10.167,10.167,0,1,0,20.334,0" transform="translate(13.181 18.105)" fill="#efb29a"/>
      <ellipse id="Ellipse_8" data-name="Ellipse 8" cx="7.291" cy="7.334" rx="7.291" ry="7.334" transform="translate(58.838 74.035)" fill="#2f373b"/>
      <path id="Path_44" data-name="Path 44" d="M54.009,72.07a7.109,7.109,0,0,1-1.7.2,7.335,7.335,0,0,1,0-14.67,7.11,7.11,0,0,1,1.7.2,7.345,7.345,0,0,0,0,14.262Z" transform="translate(13.825 16.43)" fill="#181e21"/>
      <path id="Path_45" data-name="Path 45" d="M82.662,72.07a7.109,7.109,0,0,1-1.7.2,7.335,7.335,0,0,1,0-14.67,7.11,7.11,0,0,1,1.7.2,7.345,7.345,0,0,0,0,14.262Z" transform="translate(22.087 16.43)" fill="#181e21"/>
      <ellipse id="Ellipse_9" data-name="Ellipse 9" cx="3.124" cy="3.143" rx="3.124" ry="3.143" transform="translate(66.043 76.932)" fill="#fff"/>
      <path id="Path_46" data-name="Path 46" d="M132.169,53.652C114.3,63.918,85.351,57.271,67.35,51.391c-9.621-3.139-16.114-6.058-16.114-6.058C47.32,58.512,34.7,68.97,27.556,68.97c0,0-15.263-38.738-4.168-49.9s20.452,0,20.452,0C44.612,7.921,50.425,3.087,58.478,1.81a.02.02,0,0,1,.013,0c.35-.056.7-.105,1.063-.148,16.163-1.905,40.471,9.382,51.822,13.024,0,0,0,0,.007,0a18.769,18.769,0,0,0,4.9,1.1c9.791,0,10.661-10.724,10.661-10.724s32.634,32.828,5.221,48.587Z" transform="translate(6.424 -0.195)" fill="#595959"/>
      <g id="Group_9" data-name="Group 9" transform="translate(25.769 1.616)">
        <path id="Path_47" data-name="Path 47" d="M67.35,51.307c-9.621-3.139-16.114-6.058-16.114-6.058C47.32,58.428,34.7,68.886,27.556,68.886c0,0-15.263-38.738-4.168-49.9s20.452,0,20.452,0C44.612,7.837,50.425,3,58.478,1.727,49.362,4.385,53.532,41.534,67.35,51.307Z" transform="translate(-19.346 -1.727)" fill="#454545"/>
        <path id="Path_48" data-name="Path 48" d="M90.784,13.86a18.769,18.769,0,0,0,4.9,1.1c9.791,0,10.661-10.724,10.661-10.724C108.815,12.553,107.709,23.916,90.784,13.86Z" transform="translate(1.254 -0.983)" fill="#454545"/>
        <path id="Path_49" data-name="Path 49" d="M32.6,49.21V64.182a6.89,6.89,0,0,1-6.87,6.91c-.01-.415-.016-.833-.016-1.25V49.21Z" transform="translate(-17.508 12.329)" fill="#454545"/>
      </g>
    </g>
  </g>
</svg>
