<svg xmlns="http://www.w3.org/2000/svg" xmlns:xlink="http://www.w3.org/1999/xlink" width="202" height="202" viewBox="0 0 202 202">
  <defs>
    <filter id="Ellipse_1" x="8" y="8" width="186" height="186" filterUnits="userSpaceOnUse">
      <feOffset dy="3" input="SourceAlpha"/>
      <feGaussianBlur stdDeviation="3" result="blur"/>
      <feFlood flood-color="#238488"/>
      <feComposite operator="in" in2="blur"/>
      <feComposite in="SourceGraphic"/>
    </filter>
    <filter id="Ellipse_10" x="0" y="0" width="202" height="202" filterUnits="userSpaceOnUse">
      <feOffset dy="3" input="SourceAlpha"/>
      <feGaussianBlur stdDeviation="3" result="blur-2"/>
      <feFlood flood-color="#e9e9e9"/>
      <feComposite operator="in" in2="blur-2"/>
      <feComposite in="SourceGraphic"/>
    </filter>
    <clipPath id="clip-path">
      <g transform="matrix(1, 0, 0, 1, 0, 0)" filter="url(#Ellipse_1)">
        <circle id="Ellipse_1-2" data-name="Ellipse 1" cx="84" cy="84" r="84" fill="#fff" stroke="#fff" stroke-width="6"/>
      </g>
    </clipPath>
  </defs>
  <g id="Teacher_Img" transform="translate(9 6.402)">
    <g transform="matrix(1, 0, 0, 1, -9, -6.4)" filter="url(#Ellipse_10)">
      <g id="Ellipse_10-2" data-name="Ellipse 10" transform="translate(9 6)" fill="#fff" stroke="#fff" stroke-width="1">
        <circle cx="92" cy="92" r="92" stroke="none"/>
        <circle cx="92" cy="92" r="91.5" fill="none"/>
      </g>
    </g>
    <g id="Mask_Group_1" data-name="Mask Group 1" transform="translate(8 7.598)" clip-path="url(#clip-path)">
      <g id="teacher" transform="translate(-0.278 -0.622)">
        <path id="Path_1" data-name="Path 1" d="M168.482,84.241a84.241,84.241,0,1,0-84.241,84.241A84.251,84.251,0,0,0,168.482,84.241Z" transform="translate(0.17 -3.067)" fill="#32bea6"/>
        <path id="Path_2" data-name="Path 2" d="M78.859,142.618a84.038,84.038,0,0,0,60.677-25.805,122.771,122.771,0,0,0-2.818-12.7c-2.886-9.27-27.571-16.74-57.994-16.74S23.887,94.844,21,104.114c-.883,2.886-1.867,7.538-2.818,12.7A84.038,84.038,0,0,0,78.859,142.618Z" transform="translate(5.382 25.864)" fill="#295d66"/>
        <path id="Path_3" data-name="Path 3" d="M84.1,88.291a127.717,127.717,0,0,0-15.653-.917A124.352,124.352,0,0,0,53,88.291l15.551,30.9Z" transform="translate(15.689 25.864)" fill="#dadde0"/>
        <rect id="Rectangle_2" data-name="Rectangle 2" width="29.201" height="8.489" transform="translate(69.641 110.318)" fill="#dee0e2"/>
        <path id="Path_4" data-name="Path 4" d="M67.932,114.884,55.1,88.807s3.124-4.21,12.7-4.21,12.937,4.244,12.937,4.244Z" transform="translate(16.31 25.042)" fill="#e2a379"/>
        <g id="Group_2" data-name="Group 2" transform="translate(57.078 110.318)">
          <path id="Path_5" data-name="Path 5" d="M44.041,96.088,56.6,85.121l10.865,21.7s-8.557,2.411-8.658,2.309Z" transform="translate(-44.041 -85.121)" fill="#dadde0"/>
          <path id="Path_6" data-name="Path 6" d="M91.311,96.088,78.747,85.121l-10.865,21.7s8.557,2.411,8.658,2.309Z" transform="translate(-36.983 -85.121)" fill="#dadde0"/>
        </g>
        <path id="Path_7" data-name="Path 7" d="M81.225,73.908H54.809c4.108,12.427.34,18.1.34,18.1a41.013,41.013,0,0,0,25.738,0S77.117,86.335,81.225,73.908Z" transform="translate(16.224 21.878)" fill="#e2a379"/>
        <path id="Path_8" data-name="Path 8" d="M101.83,54.711c0-31.374-13.412-38.572-29.982-38.572-16.536,0-29.982,7.2-29.982,38.572,0,10.628,2.105,18.947,5.263,25.364C54.056,94.2,66.042,99.124,71.848,99.124S89.64,94.2,96.567,80.075C99.725,73.658,101.83,65.339,101.83,54.711Z" transform="translate(12.393 4.777)" fill="#f4b382"/>
        <path id="Path_9" data-name="Path 9" d="M101.83,54.9c0-31.374-10.288-39.421-29.982-39.421S41.866,23.531,41.866,54.9c0,0,5.535-11.578,9.609-18.03s12.9-6.214,12.9-6.214H81.016s9.168.1,11.714,6.214Z" transform="translate(12.393 4.583)" fill="#47200d"/>
        <g id="Group_3" data-name="Group 3" transform="translate(84.071 99.453)">
          <path id="Path_10" data-name="Path 10" d="M64.869,76.737h0Z" transform="translate(-64.869 -76.737)" fill="#191919"/>
          <path id="Path_11" data-name="Path 11" d="M65.17,76.737Z" transform="translate(-64.83 -76.737)" fill="#191919"/>
        </g>
        <g id="Group_4" data-name="Group 4" transform="translate(50.832 60.473)">
          <path id="Path_12" data-name="Path 12" d="M46.248,67.237c-2.852.475-4.889.034-6.485-9.405s.577-10.7,3.429-11.171Z" transform="translate(-39.222 -46.661)" fill="#f4b382"/>
          <path id="Path_13" data-name="Path 13" d="M85.383,67.237c2.852.475,4.855.034,6.485-9.405s-.577-10.7-3.429-11.171Z" transform="translate(-25.557 -46.661)" fill="#f4b382"/>
        </g>
        <g id="Group_5" data-name="Group 5" transform="translate(58.606 60.914)">
          <path id="Path_14" data-name="Path 14" d="M49.973,51.263l-4.754-.238.2-.985,4.72.238Z" transform="translate(-45.22 -46.102)" fill="#141414"/>
          <path id="Path_15" data-name="Path 15" d="M81.08,51.263l-.2-.985,4.72-.238.2.985Z" transform="translate(-34.665 -46.102)" fill="#141414"/>
          <path id="Path_16" data-name="Path 16" d="M65.344,47H49.759a1.29,1.29,0,0,0-1.29,1.29v8.692a1.29,1.29,0,0,0,1.29,1.29H65.344a1.29,1.29,0,0,0,1.29-1.29V48.258A1.283,1.283,0,0,0,65.344,47ZM64.7,55.558a1,1,0,0,1-1.019,1.019H51.354a1,1,0,0,1-1.019-1.019V49.785a1,1,0,0,1,1.019-1.019H63.68A1,1,0,0,1,64.7,49.785Z" transform="translate(-44.258 -47.001)" fill="#141414"/>
          <path id="Path_17" data-name="Path 17" d="M84.391,47H68.805a1.29,1.29,0,0,0-1.29,1.29v8.692a1.29,1.29,0,0,0,1.29,1.29H84.391a1.29,1.29,0,0,0,1.29-1.29V48.258A1.283,1.283,0,0,0,84.391,47Zm-.611,8.557a1,1,0,0,1-1.019,1.019H70.435a1,1,0,0,1-1.019-1.019V49.785a1,1,0,0,1,1.019-1.019H82.761a1,1,0,0,1,1.019,1.019Z" transform="translate(-38.62 -47.001)" fill="#141414"/>
          <path id="Path_18" data-name="Path 18" d="M65.908,48.626c-3.8,0-4.176,2.343-4.075,3.531-.068.985.17.611.17.611a4.369,4.369,0,0,1,7.877,0s.238.374.17-.611C70.084,50.968,69.711,48.626,65.908,48.626Z" transform="translate(-40.306 -46.52)" fill="#141414"/>
        </g>
        <g id="Group_6" data-name="Group 6" transform="translate(64.683 62.68)">
          <path id="Path_19" data-name="Path 19" d="M83.345,55.154a1,1,0,0,1-1.019,1.019H70a1,1,0,0,1-1.019-1.019V49.382A1,1,0,0,1,70,48.364H82.326a1,1,0,0,1,1.019,1.019Z" transform="translate(-44.263 -48.364)" fill="#e8d3bb"/>
          <path id="Path_20" data-name="Path 20" d="M64.272,55.154a1,1,0,0,1-1.019,1.019H50.928a1,1,0,0,1-1.019-1.019V49.382a1,1,0,0,1,1.019-1.019H63.253a1,1,0,0,1,1.019,1.019Z" transform="translate(-49.909 -48.364)" fill="#e8d3bb"/>
        </g>
        <path id="Path_21" data-name="Path 21" d="M76.137,67.871c0,.883-4.041,3.226-9.066,3.226S58,68.72,58,67.871c0-.543,2.886-2.071,4.788-2.343,1.222-.17,4.244.985,4.244.985s2.988-1.154,4.21-.985C73.216,65.8,76.137,67.871,76.137,67.871Z" transform="translate(17.171 19.392)" fill="#e5a173"/>
        <path id="Path_22" data-name="Path 22" d="M76.137,67.332c0,.883-4.041,4.21-9.066,4.21S58,68.181,58,67.332a84.7,84.7,0,0,0,9.066.441A84.7,84.7,0,0,0,76.137,67.332Z" transform="translate(17.171 19.931)" fill="#d89364"/>
        <g id="Group_7" data-name="Group 7" transform="translate(54.293 42.036)">
          <path id="Path_23" data-name="Path 23" d="M44.846,51.125,45.8,60.5l1.324-.645c-.068-7.81.883-25.058.883-25.058L42.13,42.5c-.136,2.105-.238,4.346-.238,6.723v.917C43.217,50.072,44.846,50.208,44.846,51.125Z" transform="translate(-41.892 -31.737)" fill="#47200d"/>
          <path id="Path_24" data-name="Path 24" d="M86.55,51.823,85.6,61.194l-1.324-.645c.068-7.81-.883-28.114-.883-28.114L89.266,43.2c.136,2.105.238,4.346.238,6.723v.917C88.179,50.77,86.55,50.906,86.55,51.823Z" transform="translate(-29.608 -32.435)" fill="#47200d"/>
        </g>
        <g id="Group_8" data-name="Group 8" transform="translate(101.354 114.053)">
          <path id="Path_25" data-name="Path 25" d="M81.61,88.4Z" transform="translate(-77.196 -87.886)" fill="#fff"/>
          <path id="Path_26" data-name="Path 26" d="M78.2,88Z" transform="translate(-78.204 -88.003)" fill="#fff"/>
        </g>
      </g>
    </g>
  </g>
</svg>
