<svg id="Telephone_Ic" xmlns="http://www.w3.org/2000/svg" width="24" height="20" viewBox="0 0 24 20">
  <path id="Path_11606" data-name="Path 11606" d="M135.861,186.618l-1.419-1.671c-.916-1.078-.775-1.958-.737-3.359a.63.63,0,0,0-.454-.623l-1.641-.469a.616.616,0,0,0-.774.441,2.813,2.813,0,0,1-2.426,2.319,2.781,2.781,0,0,1-2.428-2.287.616.616,0,0,0-.763-.442l-1.663.444a.628.628,0,0,0-.464.626c.037,1.3.156,2.309-.737,3.366l-1.427,1.688a4.318,4.318,0,0,0-1.02,2.787v3.551a1.783,1.783,0,0,0,1.782,1.784h13.4a1.828,1.828,0,0,0,1.827-1.829v-3.461a4.426,4.426,0,0,0-1.052-2.865Zm-7.451,5.009a3.075,3.075,0,1,1,3.072-3.075A3.073,3.073,0,0,1,128.409,191.628Z" transform="translate(-116.409 -174.773)" fill="#3b8c67"/>
  <path id="Path_11607" data-name="Path 11607" d="M87.079,106.14c-2.306-1.918-6.595-3.265-11.079-3.265s-8.773,1.346-11.079,3.265a3.936,3.936,0,0,0-.58,4.136c.515,1,1.124,1.428,2.213,1.1l1.815-.747c.711-.182.89-.642.741-1.449-.329-1.771.162-2.336,1.754-2.74A23.065,23.065,0,0,1,76,106.014a23.066,23.066,0,0,1,5.137.422c1.591.4,2.082.968,1.754,2.74-.15.807.03,1.267.741,1.449l1.815.747c1.089.332,1.7-.1,2.213-1.1a3.936,3.936,0,0,0-.58-4.136Z" transform="translate(-64 -102.875)" fill="#3b8c67"/>
</svg>
