<svg xmlns="http://www.w3.org/2000/svg" width="24" height="24" viewBox="0 0 24 24">
  <g id="time" transform="translate(-6.678 -1)">
    <g id="Clock_IC_-_Work_Schedule_Screen" data-name="Clock_IC - Work Schedule Screen" transform="translate(6.678 1)">
      <path id="Path_11748" data-name="Path 11748" d="M13,1A12,12,0,1,0,25,13,12,12,0,0,0,13,1Zm4.044,16.044a1.091,1.091,0,0,1-1.543,0l-3.273-3.273a1.091,1.091,0,0,1-.32-.771V6.455a1.091,1.091,0,1,1,2.182,0v6.094L17.044,15.5a1.091,1.091,0,0,1,0,1.543Z" transform="translate(-1 -1)" fill="#3b8c67"/>
    </g>
  </g>
</svg>
