<svg id="time_picker" data-name="time picker" xmlns="http://www.w3.org/2000/svg" width="24" height="24" viewBox="0 0 24 24">
  <path id="Path_11370" data-name="Path 11370" d="M15.984,12.234a.937.937,0,0,1,.937.937v2.834a.938.938,0,0,1-.334.718l-1.5,1.263a.938.938,0,1,1-1.207-1.435l1.168-.982v-2.4a.937.937,0,0,1,.937-.937Zm7.078-3.7a.937.937,0,0,0-.937.938v1.442A7.995,7.995,0,1,0,15.984,24a8.073,8.073,0,0,0,3.483-.79l.055-.025.015-.009c.126-.062.251-.127.374-.2A.938.938,0,0,0,19,21.343,6.128,6.128,0,1,1,15.963,9.886a6.116,6.116,0,0,1,4.856,2.4h-1.46a.937.937,0,0,0,0,1.875h1.828A2.816,2.816,0,0,0,24,11.344V9.469a.937.937,0,0,0-.937-.937Zm-.67,10.637a.937.937,0,1,0,.253,1.3.937.937,0,0,0-.253-1.3Zm1.575-2.9c-.006-.03-.014-.06-.022-.089s-.019-.058-.031-.086a.907.907,0,0,0-.039-.083c-.015-.027-.03-.053-.047-.079a.879.879,0,0,0-.055-.074.925.925,0,0,0-.13-.13.859.859,0,0,0-.074-.055.9.9,0,0,0-.079-.047c-.027-.015-.055-.028-.083-.039s-.057-.022-.086-.031-.06-.016-.089-.023a.859.859,0,0,0-.091-.014.911.911,0,0,0-.184,0,.853.853,0,0,0-.091.014c-.03.006-.06.014-.089.023a.914.914,0,0,0-.086.031.857.857,0,0,0-.083.039.825.825,0,0,0-.079.047.782.782,0,0,0-.074.055.877.877,0,0,0-.068.062.85.85,0,0,0-.062.068.946.946,0,0,0-.1.153.907.907,0,0,0-.039.083c-.012.028-.022.057-.031.086s-.016.059-.023.089a.937.937,0,0,0,0,.367c.006.029.014.06.023.089s.019.058.031.086a.908.908,0,0,0,.039.083c.014.027.03.053.047.079a.873.873,0,0,0,.054.074.85.85,0,0,0,.062.068.877.877,0,0,0,.068.062.851.851,0,0,0,.074.055.825.825,0,0,0,.079.047.858.858,0,0,0,.083.039.913.913,0,0,0,.086.031c.029.009.059.016.089.023a.851.851,0,0,0,.091.014.865.865,0,0,0,.092,0,.966.966,0,0,0,.183-.018c.03-.006.06-.014.089-.023s.058-.019.086-.031.056-.025.083-.039a.9.9,0,0,0,.079-.047c.025-.017.051-.036.074-.055a.925.925,0,0,0,.13-.13.879.879,0,0,0,.055-.074c.017-.025.032-.052.047-.079a.908.908,0,0,0,.039-.083c.012-.028.022-.057.031-.086s.016-.06.022-.089a.928.928,0,0,0,.014-.276A.917.917,0,0,0,23.967,16.27ZM7.687,22.125H3.75A1.877,1.877,0,0,1,1.875,20.25V5.625A1.877,1.877,0,0,1,3.75,3.75H4.921v.937a.937.937,0,0,0,1.875,0V3.75h4.219v.937a.937.937,0,0,0,1.875,0V3.75h4.266v.937a.937.937,0,1,0,1.875,0V3.75H20.25a1.877,1.877,0,0,1,1.875,1.875.937.937,0,0,0,1.875,0,3.754,3.754,0,0,0-3.75-3.75H19.031V.937a.937.937,0,1,0-1.875,0v.937H12.89V.937a.937.937,0,0,0-1.875,0v.937H6.8V.937a.937.937,0,0,0-1.875,0v.937H3.75A3.754,3.754,0,0,0,0,5.625V20.25A3.754,3.754,0,0,0,3.75,24H7.687a.937.937,0,1,0,0-1.875Zm0,0" transform="translate(0)" fill="#3b8c67"/>
</svg>
