<svg xmlns="http://www.w3.org/2000/svg" width="48" height="64" viewBox="0 0 48 64">
  <g id="undraw_handcrafts_pinned_file" transform="translate(0 0)">
    <path id="Path_11581" data-name="Path 11581" d="M357.213,287.027c13.773-1.7,27.614-3.471,41.453-4.68,5.852.3,5.4,11.128,4.859,15.256-.86,6.606-2.915,13.209-2.1,19.937-.089,2.026,2.688,5.851-1.016,5.533a312.857,312.857,0,0,1-41.2,1.65c-1.7.3-.552-1.151-.435-2.168a86.273,86.273,0,0,0,3.28-17.124c.4-6.558-.591-13.414-4.087-19.1,3.2,5.511,4.109,12.12,3.651,18.492-.495,6.993-2.606,13.945-4.585,20.7a289.248,289.248,0,0,0,36.225-.465c3.974-.95,12.911,1.26,9.935-5.439-2-8.407,1.535-16.815,1.834-25.226.081-4.851-.685-14.041-7.579-12.95C384.283,282.985,369.068,285.117,357.213,287.027Z" transform="translate(-357.034 -261.883)" fill="#3b8c67"/>
    <path id="Path_11582" data-name="Path 11582" d="M538.6,413.2A27.694,27.694,0,0,0,518.9,415.74,92.357,92.357,0,0,1,538.6,413.2Z" transform="translate(-500.862 -378.759)" fill="#3b8c67"/>
    <path id="Path_11583" data-name="Path 11583" d="M503.287,499.675a85.262,85.262,0,0,0-23.619,3.593A157.775,157.775,0,0,0,503.287,499.675Z" transform="translate(-465.979 -456.507)" fill="#3b8c67"/>
    <path id="Path_11584" data-name="Path 11584" d="M503.548,595.05a65.182,65.182,0,0,0-24.019,2.049C486.611,596.641,496.775,595.95,503.548,595.05Z" transform="translate(-465.852 -541.202)" fill="#3b8c67"/>
    <path id="Path_11585" data-name="Path 11585" d="M555.4,264.723c1.743.215,7.64-2.612,6.228.113-2.637,9.441-2.039,4.451-6.652,0a53.916,53.916,0,0,1,4.732,9C562.484,265.722,567.746,258.935,555.4,264.723Z" transform="translate(-533.004 -245.312)" fill="#3b8c67"/>
    <path id="Path_11586" data-name="Path 11586" d="M496.044,122.6a1.906,1.906,0,0,1-1.794-3.216c.614-.6,1.616-.775,2.033-1.523a2.4,2.4,0,0,0,.146-1.518c-.245-1.677-.872-3.274-1.232-4.93a7.206,7.206,0,0,1,.381-4.961,3.524,3.524,0,0,1,4.272-1.763c1.495.676,2.039,2.483,2.417,4.079l.98,4.139a2.042,2.042,0,0,0,.29.756c.592.806,1.866.365,2.834.617a2.538,2.538,0,0,1,1.4,3.321,5.747,5.747,0,0,1-2.822,2.795,19.7,19.7,0,0,1-9.443,2.314" transform="translate(-478.479 -104.461)" fill="#ffc258"/>
    <path id="Path_11587" data-name="Path 11587" d="M527.319,128.529c5.356,1.7,20.2-6.5,9.209-9.2-2.366-3.1-2.4-14.369-9.246-7.821-3.3,4.032,2.842,9.309.191,12.9-2.154.616-2.3,4.006.276,3.556-5.057-1.089,2.151-3.341,1.119-5.773-.494-3.56-3.748-10.177,1.674-11.24,3.666.714,2.8,6.041,4.22,8.719C546.231,122.714,532.83,128.66,527.319,128.529Z" transform="translate(-507.064 -108.947)" fill="#3b8c67"/>
    <path id="Path_11588" data-name="Path 11588" d="M583.845,354.615c-.086-.533.942-1,.436-1.175-.059.848-1.384.568-.671,1.24a.655.655,0,0,1,.7-.259c-.269-.257-.247-.082-.495.045.2.4.17.517.717.307.15.045-.144.178.032.043-.091-.02-.445-.553-.421-.24-.149-.091-.163-.2-.27-.313.063.111-.108.313.042.243.88.9.025-.839.086-.305.23.027.521.018.32-.216-.666-.784-.4.018-1.118-.03.392.673.06.024.355-.336.324-.7,1.69-.668,1.86.1a1.813,1.813,0,0,1-2.482,1.442c-.311-1.318.455-2.511-.307-.462.108,1.835,3.072.788,3.4-.543.693-2.722-4.2-2.415-3.755.276.636,1.766,3.452.122,2.785-1.556-1.875-.874-3,2.548-.8,2.387,2.9-1.543-1.463-2.971-1.171-.4,1.479,1.953,2.765-2.067.568-.907-.253.115-.232,1.029-.135.8a1.281,1.281,0,0,1,.12-.541c.457-.279.611.432,1.18-.456,1.164.28-1.6-.945-1.7,1.469,3.157.867,1.222-3.8-.243-.313a1.629,1.629,0,0,0,1.7-1.793A1.842,1.842,0,0,0,583.845,354.615Z" transform="translate(-557.258 -325.189)" fill="#3b8c67"/>
  </g>
</svg>
