<svg xmlns="http://www.w3.org/2000/svg" width="24" height="24" viewBox="0 0 24 24">
  <g id="upload" transform="translate(-1 -1)" opacity="0.88">
    <path id="Path_10978" data-name="Path 10978" d="M13,1A12,12,0,1,0,25,13,12,12,0,0,0,13,1ZM9.554,8.914l2.88-2.88a.8.8,0,0,1,1.133,0l2.88,2.88a.8.8,0,1,1-1.131,1.131L13.8,8.531V15.56a.8.8,0,1,1-1.6,0V8.531l-1.514,1.514A.8.8,0,1,1,9.554,8.914ZM18.84,17.8a.8.8,0,0,1-.8.8H7.96a.8.8,0,0,1-.8-.8V15.56a.8.8,0,0,1,1.6,0V17h8.48V15.56a.8.8,0,0,1,1.6,0Z" fill="#3b8c67"/>
  </g>
</svg>
