<svg id="Virtual_session" data-name="Virtual session" xmlns="http://www.w3.org/2000/svg" width="72" height="56" viewBox="0 0 72 56">
  <g id="Group_7142" data-name="Group 7142">
    <path id="Path_11766" data-name="Path 11766" d="M42.022,58.965c0,7.99,9.455,14.465,21.11,14.465A28.966,28.966,0,0,0,69,72.852a32.322,32.322,0,0,0,9.763,3.707,1.344,1.344,0,0,0,1.425-2.119A14.128,14.128,0,0,1,77.6,69.5c4.088-2.629,6.647-6.371,6.647-10.53,0-7.99-9.455-14.465-21.11-14.465S42.022,50.975,42.022,58.965Z" transform="translate(-12.242 -20.599)" fill="#eea82a"/>
    <path id="Path_11767" data-name="Path 11767" d="M79.1,70.408c4.088-2.629,6.647-6.371,6.647-10.53,0-5.069-3.813-9.522-9.572-12.1,0,11.715-9.977,21.213-22.285,21.213H48.249c3.871,3.267,9.773,5.357,16.391,5.357a28.967,28.967,0,0,0,5.867-.579,32.352,32.352,0,0,0,9.768,3.708A1.342,1.342,0,0,0,81.7,75.357a14.132,14.132,0,0,1-2.595-4.95Z" transform="translate(-13.751 -21.511)" fill="#ef920b"/>
    <path id="Path_11768" data-name="Path 11768" d="M51.6,27.9c0,9.337-11.049,16.9-24.668,16.9a33.859,33.859,0,0,1-6.856-.677A37.8,37.8,0,0,1,8.669,48.463,1.571,1.571,0,0,1,7,45.987a16.517,16.517,0,0,0,3.027-5.779C5.254,37.137,2.264,32.763,2.264,27.9c0-9.337,11.049-16.9,24.668-16.9S51.6,18.567,51.6,27.9Z" transform="translate(-2.264 -11)" fill="#238d76"/>
    <path id="Path_11769" data-name="Path 11769" d="M53,29.967c0,9.341-11.039,16.906-24.668,16.906a33.5,33.5,0,0,1-6.85-.677,37.75,37.75,0,0,1-11.412,4.332A1.567,1.567,0,0,1,8.412,48.05a17.507,17.507,0,0,0,1.377-1.988,32.2,32.2,0,0,0,7.946-3.432,33.615,33.615,0,0,0,6.861.677c13.618,0,24.668-7.564,24.668-16.894a12.892,12.892,0,0,0-2.929-8C50.467,21.448,53,25.5,53,29.967Z" transform="translate(-3.668 -13.067)" opacity="0.1"/>
    <g id="Group_7141" data-name="Group 7141" transform="translate(12.814 10.485)">
      <path id="Path_11770" data-name="Path 11770" d="M42.645,28.741V35.08a1.509,1.509,0,0,1-2.454,1.1l-3.384-2.669V36.7a1.459,1.459,0,0,1-1.5,1.425H21.131a1.467,1.467,0,0,1-1.5-1.425v-9.56a1.467,1.467,0,0,1,1.5-1.425H35.312a1.458,1.458,0,0,1,1.5,1.425V30.32l3.384-2.669a1.508,1.508,0,0,1,2.453,1.09Z" transform="translate(-19.634 -25.713)" fill="#fefefe"/>
      <path id="Path_11771" data-name="Path 11771" d="M58.956,56.446a.855.855,0,0,0,.875.833h14.8a.834.834,0,1,0,0-1.666h-14.8A.855.855,0,0,0,58.956,56.446Z" transform="translate(-29.158 -34.045)" fill="#fefefe"/>
      <path id="Path_11772" data-name="Path 11772" d="M51.754,64.228a.855.855,0,0,0,.875.833H78.348a.834.834,0,1,0,0-1.666H52.629A.855.855,0,0,0,51.754,64.228Z" transform="translate(-27.414 -36.214)" fill="#fefefe"/>
      <path id="Path_11773" data-name="Path 11773" d="M74.635,71.179h-14.8a.834.834,0,1,0,0,1.666h14.8a.834.834,0,1,0,0-1.666Z" transform="translate(-29.158 -38.383)" fill="#fefefe"/>
    </g>
  </g>
</svg>
