<svg id="Warning_Ic_-_MyStudents" data-name="Warning_Ic - MyStudents" xmlns="http://www.w3.org/2000/svg" width="24" height="21" viewBox="0 0 24 21">
  <path id="Path_11024" data-name="Path 11024" d="M22.122,52.03H1.878a1.867,1.867,0,0,1-1.62-2.808L10.38,31.956a1.879,1.879,0,0,1,3.239,0L23.741,49.222A1.867,1.867,0,0,1,22.122,52.03Z" transform="translate(0 -31.03)" fill="#ffc258"/>
  <path id="Path_11025" data-name="Path 11025" d="M44.166,65.116,34.048,82.36a.281.281,0,0,0,.245.424H54.528a.281.281,0,0,0,.245-.424L44.655,65.116A.284.284,0,0,0,44.166,65.116Z" transform="translate(-32.41 -63.38)" fill="#ffc258"/>
  <g id="Group_6155" data-name="Group 6155" transform="translate(11.13 8.05)">
    <path id="Path_11026" data-name="Path 11026" d="M238.358,358.131a.847.847,0,1,1,0,1.694.86.86,0,0,1-.876-.841A.876.876,0,0,1,238.358,358.131Z" transform="translate(-237.482 -350.906)" fill="#e4eaf8"/>
    <path id="Path_11027" data-name="Path 11027" d="M239.39,210.326c-.486,0-.825-.235-.825-.572V205c0-.282.331-.583.825-.583.445,0,.835.273.835.583v4.754C240.224,210.086,239.873,210.326,239.39,210.326Z" transform="translate(-238.514 -204.417)" fill="#e4eaf8"/>
  </g>
  <path id="Path_11028" data-name="Path 11028" d="M1.23,49.212,11.379,31.947a1.86,1.86,0,0,1,1.14-.864,1.881,1.881,0,0,0-2.108.864L.261,49.212a1.867,1.867,0,0,0,1.624,2.808h.969A1.867,1.867,0,0,1,1.23,49.212Z" transform="translate(-0.002 -31.021)" fill="#ffc258"/>
  <path id="Path_11029" data-name="Path 11029" d="M35.017,82.36l9.911-16.838-.239-.405a.285.285,0,0,0-.491,0L34.048,82.36a.281.281,0,0,0,.246.424h.969A.281.281,0,0,1,35.017,82.36Z" transform="translate(-32.41 -63.38)" fill="#ffc258"/>
  <g id="Group_6156" data-name="Group 6156" transform="translate(11.13 8.05)">
    <path id="Path_11030" data-name="Path 11030" d="M238.451,358.983a.854.854,0,0,1,.388-.7.861.861,0,0,0-.481-.149.876.876,0,0,0-.876.852.873.873,0,0,0,1.354.7A.832.832,0,0,1,238.451,358.983Z" transform="translate(-237.483 -350.906)" fill="#d8dce5"/>
    <path id="Path_11031" data-name="Path 11031" d="M239.533,209.754V205a.571.571,0,0,1,.339-.468,1.063,1.063,0,0,0-.483-.115c-.493,0-.825.3-.825.583v4.754c0,.337.339.572.825.572a1.159,1.159,0,0,0,.484-.1A.527.527,0,0,1,239.533,209.754Z" transform="translate(-238.514 -204.417)" fill="#d8dce5"/>
  </g>
</svg>
