<svg id="Website_Ic" xmlns="http://www.w3.org/2000/svg" width="40" height="40" viewBox="0 0 40 40">
  <circle id="Ellipse_639" data-name="Ellipse 639" cx="20" cy="20" r="20" fill="#576a7b"/>
  <g id="svgexport-6" transform="translate(8 8)">
    <path id="Path_11136" data-name="Path 11136" d="M19.225,8.552C18.381,4.539,16.583,2,14.919,2s-3.462,2.539-4.305,6.552Z" transform="translate(-2.919 -1.487)" fill="#fff"/>
    <path id="Path_11137" data-name="Path 11137" d="M10,15.275a25.2,25.2,0,0,0,.214,3.281l9.165,0a25.179,25.179,0,0,0,.213-3.276,25.2,25.2,0,0,0-.214-3.281l-9.165,0A25.179,25.179,0,0,0,10,15.275Z" transform="translate(-2.796 -3.274)" fill="#fff"/>
    <path id="Path_11138" data-name="Path 11138" d="M10.614,22c.843,4.013,2.642,6.552,4.305,6.552S18.381,26.013,19.225,22Z" transform="translate(-2.919 -5.062)" fill="#fff"/>
    <path id="Path_11139" data-name="Path 11139" d="M22.6,8.439h5.036a12.111,12.111,0,0,0-8.352-7.065C20.8,2.741,21.991,5.269,22.6,8.439Z" transform="translate(-4.649 -1.374)" fill="#fff"/>
    <path id="Path_11140" data-name="Path 11140" d="M29.108,12H23.753a27.125,27.125,0,0,1,.2,3.276,27.136,27.136,0,0,1-.2,3.279l5.356,0a12.494,12.494,0,0,0,0-6.552Z" transform="translate(-5.545 -3.275)" fill="#fff"/>
    <path id="Path_11141" data-name="Path 11141" d="M19.285,29.065A12.111,12.111,0,0,0,27.639,22H22.6C21.991,25.171,20.8,27.7,19.285,29.065Z" transform="translate(-4.649 -5.062)" fill="#fff"/>
    <path id="Path_11142" data-name="Path 11142" d="M7.3,22H2.266a12.111,12.111,0,0,0,8.354,7.065C9.1,27.7,7.913,25.171,7.3,22Z" transform="translate(-1.255 -5.062)" fill="#fff"/>
    <path id="Path_11143" data-name="Path 11143" d="M10.618,1.374A12.111,12.111,0,0,0,2.264,8.439H7.3c.612-3.171,1.8-5.7,3.318-7.065Z" transform="translate(-1.254 -1.374)" fill="#fff"/>
    <path id="Path_11144" data-name="Path 11144" d="M6.6,15.276A27.136,27.136,0,0,1,6.794,12L1.438,12a12.494,12.494,0,0,0,0,6.552H6.794a27.126,27.126,0,0,1-.2-3.276Z" transform="translate(-1.001 -3.274)" fill="#fff"/>
  </g>
</svg>
