<svg id="Whatsapp_Ic" xmlns="http://www.w3.org/2000/svg" width="40" height="40" viewBox="0 0 40 40">
  <circle id="Ellipse_623" data-name="Ellipse 623" cx="20" cy="20" r="20" fill="#576a7b"/>
  <g id="whats" transform="translate(8 8)">
    <path id="Path_11112" data-name="Path 11112" d="M20.753,3.488a11.961,11.961,0,0,0-20.4,8.4,11.828,11.828,0,0,0,1.6,5.946L.25,24l6.335-1.654a11.982,11.982,0,0,0,5.71,1.448H12.3A11.938,11.938,0,0,0,24.25,11.9a11.791,11.791,0,0,0-3.5-8.413ZM12.3,21.785h0a9.956,9.956,0,0,1-5.055-1.378l-.363-.214-3.759.981,1-3.648-.236-.374A9.881,9.881,0,0,1,12.3,2.009a9.888,9.888,0,1,1,0,19.777Zm5.448-7.4c-.3-.149-1.767-.867-2.04-.967s-.473-.149-.672.149-.771.967-.946,1.165-.348.223-.647.074a8.164,8.164,0,0,1-2.4-1.475A8.97,8.97,0,0,1,9.381,11.27c-.174-.3,0-.443.131-.606a8.407,8.407,0,0,0,.746-1.016.544.544,0,0,0-.025-.521c-.074-.149-.672-1.611-.92-2.206-.243-.579-.489-.5-.672-.51s-.373-.01-.572-.01a1.1,1.1,0,0,0-.8.372A3.326,3.326,0,0,0,6.228,9.251a5.766,5.766,0,0,0,1.219,3.074,13.284,13.284,0,0,0,5.1,4.487,17.142,17.142,0,0,0,1.7.626,4.112,4.112,0,0,0,1.881.118,3.076,3.076,0,0,0,2.015-1.413,2.472,2.472,0,0,0,.174-1.413c-.074-.124-.274-.2-.572-.347Zm0,0" transform="translate(-0.25)" fill="#fff" fill-rule="evenodd"/>
  </g>
</svg>
